<svg xmlns="http://www.w3.org/2000/svg" width="108.681" height="110.024" viewBox="0 0 108.681 110.024">
  <g id="Group_1403" data-name="Group 1403" transform="translate(-1527 -1458)">
    <path id="Path_3877" data-name="Path 3877" d="M140.646,314.921l-.149-1.69a23.678,23.678,0,0,0-23.475-21.586c-.138,0-.274.014-.413.016A28.4,28.4,0,0,0,97.174,284.4a28.907,28.907,0,0,0-19.2,7.294c-.245-.009-.485-.049-.725-.049a23.694,23.694,0,0,0-23.471,21.669l-.076,2.038,1.811.067V317h83.322V315.08Z" transform="translate(1484.166 1234.718)" fill="#fcac2b"/>
    <g id="Group_1328" data-name="Group 1328" transform="translate(1537.868 1519.114)">
      <path id="Path_3878" data-name="Path 3878" d="M140.491,313.231a23.676,23.676,0,0,0-23.468-21.586c-.138,0-.274.014-.413.016A28.4,28.4,0,0,0,97.174,284.4a28.908,28.908,0,0,0-19.2,7.294c-.245-.009-.485-.049-.725-.049a23.694,23.694,0,0,0-23.471,21.669l-.076,2.038,3.623.134.069-1.954a20.033,20.033,0,0,1,19.856-18.264,19.8,19.8,0,0,1,6.418,1.109,21.849,21.849,0,0,0-2.989,2.9,16.235,16.235,0,0,0-19.343,12.37,15.977,15.977,0,0,0-.272,1.63l-.112,1.811,3.623.225.1-1.7a12.679,12.679,0,0,1,25.163,0l.107-.014.107,1.712,3.623-.225-.123-1.7a3.623,3.623,0,1,1,7.245-.1l-.21,1.688,3.594.449.226-1.811a1.576,1.576,0,0,0,.013-.225,7.246,7.246,0,0,0-7.245-7.245,7.171,7.171,0,0,0-5.157,2.184,16.319,16.319,0,0,0-1.933-3.166,10.757,10.757,0,0,1,7.09-2.641,10.879,10.879,0,0,1,10.868,10.868h.154l-.04,1.422,3.623.1.034-1.253a5.434,5.434,0,0,1,10.461.127l.3,1.359,3.536-.79-.317-1.415a9.025,9.025,0,0,0-14.954-4.32,14.432,14.432,0,0,0-1.668-3.344,12.65,12.65,0,0,1,20.423,8.3l.181,1.811,3.623-.362-.192-1.851A16.317,16.317,0,0,0,122.3,299.789a22.889,22.889,0,0,0-2.34-4.275,20.041,20.041,0,0,1,16.927,18.032l.15,1.7,3.606-.322Zm-43.317-14.34a14.356,14.356,0,0,0-9.634,3.686,16.374,16.374,0,0,0-3.125-2.023,18.007,18.007,0,0,1,25.466-.024l.024.024a16.408,16.408,0,0,0-3.132,1.992A14.411,14.411,0,0,0,97.174,298.891Zm19.849,0a16.177,16.177,0,0,0-3.38.362A21.6,21.6,0,0,0,87.393,294a23.5,23.5,0,0,0-4.373-1.614,25.252,25.252,0,0,1,14.154-4.364c8.986,0,16.793,4.208,20.66,10.906C117.564,298.914,117.3,298.891,117.023,298.891Z" transform="translate(-53.702 -284.396)" fill="#fa962a"/>
      <path id="Path_3879" data-name="Path 3879" d="M129.529,385.562a9.065,9.065,0,0,0-8.785,6.851l-.453,2.038,3.536.79.44-1.982a5.434,5.434,0,0,1,10.544.061l.569,1.925,3.472-1.027-.543-1.862A9.057,9.057,0,0,0,129.529,385.562Z" transform="translate(-105.982 -363.822)" fill="#fa962a"/>
    </g>
    <path id="Path_3880" data-name="Path 3880" d="M11.556,419.279H116.614A18.113,18.113,0,0,1,98.5,437.392H29.669a18.113,18.113,0,0,1-18.113-18.113Z" transform="translate(1517.255 1128.821)" fill="#e5e5e5"/>
    <path id="Path_3881" data-name="Path 3881" d="M239.187,419.279c-9.781,9.1-22.642,14.688-34.74,18.113h45.494a18.113,18.113,0,0,0,18.113-18.113Z" transform="translate(1365.815 1128.821)" fill="#dedede"/>
    <path id="Path_3882" data-name="Path 3882" d="M115.3,149.336a14.594,14.594,0,0,1,.5-13.529,11.01,11.01,0,0,0,0-10.883,14.651,14.651,0,0,1,0-14.476,26.841,26.841,0,0,0,1.489-4.934l3.536.8a29.166,29.166,0,0,1-1.877,5.948,11.015,11.015,0,0,0,0,10.881,14.633,14.633,0,0,1,0,14.476,10.972,10.972,0,0,0-.375,10.165Z" transform="translate(1436.922 1375.16)" fill="#fa962a"/>
    <g id="Group_1329" data-name="Group 1329" transform="translate(1534.245 1459.344)">
      <path id="Path_3883" data-name="Path 3883" d="M169.271,18.541l-53.558,1.576L112.4,16.806a7.249,7.249,0,0,0-5.124-2.123h-16.8a12.765,12.765,0,0,0-1.63,5.434h14.183V23.74H89.115a12.715,12.715,0,0,0,1.366,3.623h12.553v3.623H91.854a12.9,12.9,0,0,1,0,5.434h15.427a7.249,7.249,0,0,0,5.124-2.123l3.308-3.311,53.329,3.137a7.8,7.8,0,0,0,1.02-15.565,7.256,7.256,0,0,0-.792-.011v-.005Z" transform="translate(-77.675 -12.871)" fill="#e5e5e5"/>
      <rect id="Rectangle_256" data-name="Rectangle 256" width="3.623" height="3.623" transform="translate(0 7.246)" fill="#e5e5e5"/>
      <rect id="Rectangle_257" data-name="Rectangle 257" width="5.434" height="3.623" transform="translate(0 14.491)" fill="#e5e5e5"/>
      <rect id="Rectangle_258" data-name="Rectangle 258" width="7.245" height="3.623" transform="translate(0 21.736)" fill="#e5e5e5"/>
      <rect id="Rectangle_259" data-name="Rectangle 259" width="5.307" height="3.623" fill="#e5e5e5"/>
    </g>
    <g id="Group_1330" data-name="Group 1330" transform="translate(1536.059 1458)">
      <path id="Path_3884" data-name="Path 3884" d="M48.558,71.128c-.163-.451-.3-.869-.429-1.277a15.347,15.347,0,0,0-.966-2.476,14.593,14.593,0,0,1,.058-14.429A10.826,10.826,0,0,0,47.2,42.092a14.642,14.642,0,0,1,0-14.476,10.824,10.824,0,0,0,.014-10.857A14.64,14.64,0,0,1,47.205,2.25L47.89.963A1.811,1.811,0,0,1,50.339.212h0a1.812,1.812,0,0,1,.75,2.449L50.377,4a11.034,11.034,0,0,0-.024,10.924,14.651,14.651,0,0,1,0,14.476,10.885,10.885,0,0,0,0,10.883,14.651,14.651,0,0,1,0,14.476,11.01,11.01,0,0,0,0,10.883,19.051,19.051,0,0,1,1.228,3.079c.119.362.241.752.389,1.163Z" transform="translate(-45.284 0)" fill="#fcac2b"/>
      <path id="Path_3885" data-name="Path 3885" d="M82.787,70.756a11.252,11.252,0,0,0-.652-1.346,14.645,14.645,0,0,1,0-14.478,10.885,10.885,0,0,0,0-10.883,14.642,14.642,0,0,1,0-14.476,11.01,11.01,0,0,0,0-10.883A15.4,15.4,0,0,1,82.021,4.2l.395-.744a1.81,1.81,0,0,1,2.449-.75h0a1.81,1.81,0,0,1,.75,2.449l-.435.815a11.742,11.742,0,0,0,.129,10.982,14.61,14.61,0,0,1-.029,14.425,10.885,10.885,0,0,0,0,10.883,14.633,14.633,0,0,1,0,14.476,11.018,11.018,0,0,0,0,10.883,14.043,14.043,0,0,1,.868,1.79Z" transform="translate(-72.714 -1.958)" fill="#fcac2b"/>
    </g>
    <path id="Path_3886" data-name="Path 3886" d="M339.318,48.833a7.789,7.789,0,0,0,2.014-15.413,202.156,202.156,0,0,1-35.6,13.437Z" transform="translate(1286.295 1431.762)" fill="#dedede"/>
    <path id="Path_3887" data-name="Path 3887" d="M110,311.57h-9.432a23.681,23.681,0,0,0-23.248-19.925c-.138,0-.274.014-.413.016A28.4,28.4,0,0,0,57.467,284.4a28.908,28.908,0,0,0-19.2,7.294c-.245-.009-.485-.049-.725-.049A23.679,23.679,0,0,0,14.3,311.57H4.938a1.812,1.812,0,0,0-1.811,1.811,19.948,19.948,0,0,0,19.925,19.925H91.883a19.948,19.948,0,0,0,19.925-19.925A1.811,1.811,0,0,0,110,311.57Zm-13.089,0h-3.7a16.329,16.329,0,0,0-10.624-11.786,22.886,22.886,0,0,0-2.34-4.275A20.068,20.068,0,0,1,96.907,311.57Zm-51.069,0a9.057,9.057,0,0,0-16.592,0h-3.84a12.668,12.668,0,0,1,24.272,0h-3.84Zm-4.251,0H33.5a5.422,5.422,0,0,1,8.089,0Zm15.88-16.3a18.116,18.116,0,0,1,12.73,5.287,16.41,16.41,0,0,0-3.132,1.992,14.418,14.418,0,0,0-19.233.022,16.377,16.377,0,0,0-3.125-2.023A18.03,18.03,0,0,1,57.467,295.268Zm6.988,16.3a7.213,7.213,0,0,0-12.15-3.26,16.2,16.2,0,0,0-1.927-3.155,10.757,10.757,0,0,1,7.089-2.641,10.878,10.878,0,0,1,10.705,9.057H64.455Zm-3.869,0H54.348a3.592,3.592,0,0,1,6.238,0Zm25.027,0a9.015,9.015,0,0,0-14.48-2.958,14.432,14.432,0,0,0-1.668-3.344,12.638,12.638,0,0,1,20,6.3H85.614v0Zm-4.251,0H73.273a5.422,5.422,0,0,1,8.089,0Zm-23.9-23.548c8.986,0,16.793,4.208,20.66,10.906-.27-.014-.543-.038-.811-.038a16.177,16.177,0,0,0-3.38.362A21.6,21.6,0,0,0,47.686,294a23.5,23.5,0,0,0-4.373-1.614A25.25,25.25,0,0,1,57.467,288.022Zm-19.925,7.246a19.8,19.8,0,0,1,6.418,1.109,21.848,21.848,0,0,0-2.989,2.9,16.23,16.23,0,0,0-19.322,12.3h-3.7A20.049,20.049,0,0,1,37.542,295.268Zm54.34,34.416H23.052a16.325,16.325,0,0,1-16.2-14.491H108.085A16.328,16.328,0,0,1,91.883,329.683Z" transform="translate(1523.873 1234.718)"/>
    <path id="Path_3888" data-name="Path 3888" d="M41.958,27.99H36.843v3.623h4.179a9.981,9.981,0,0,1-.444.906,14.633,14.633,0,0,0,0,14.476,11.018,11.018,0,0,1,0,10.883,14.593,14.593,0,0,0-.042,14.4,15.358,15.358,0,0,1,.966,2.476c.132.408.266.826.429,1.277L45.34,74.8c-.148-.411-.27-.792-.389-1.163a18.927,18.927,0,0,0-1.224-3.085,11.01,11.01,0,0,1,0-10.883,14.642,14.642,0,0,0,0-14.476,11.01,11.01,0,0,1,0-10.883,14.642,14.642,0,0,0,0-14.476,11.009,11.009,0,0,1,0-10.868,1.812,1.812,0,0,0-1.576-2.717H36.843V9.877h2.536a14.57,14.57,0,0,0-.667,3.623H36.843v3.623h2.083a14.6,14.6,0,0,0,1.2,3.623H36.843v3.623h4.829A11.034,11.034,0,0,1,41.958,27.99Z" transform="translate(1497.402 1453.09)"/>
    <path id="Path_3889" data-name="Path 3889" d="M162.419,10.114l-52.781,1.552-2.757-2.76a8.986,8.986,0,0,0-6.4-2.652H83.555A1.813,1.813,0,0,0,81.76,7.815a14.658,14.658,0,0,0,.346,13.835,11.01,11.01,0,0,1,0,10.883,14.642,14.642,0,0,0,0,14.476,11.01,11.01,0,0,1,0,10.883,14.637,14.637,0,0,0,0,14.478,11.239,11.239,0,0,1,.652,1.346l3.358-1.355a14.029,14.029,0,0,0-.868-1.79,11.018,11.018,0,0,1,0-10.883,14.633,14.633,0,0,0,0-14.476,11.018,11.018,0,0,1,0-10.883,14.611,14.611,0,0,0,1.2-2.717h3.335a9.677,9.677,0,0,1-.435.906,14.651,14.651,0,0,0,0,14.476,11.01,11.01,0,0,1,0,10.883,14.6,14.6,0,0,0-.5,13.522l3.27-1.559A10.972,10.972,0,0,1,92.5,59.674a14.633,14.633,0,0,0,0-14.476,11.015,11.015,0,0,1,0-10.881A14.7,14.7,0,0,0,93.662,31.6h6.814a8.987,8.987,0,0,0,6.4-2.652l2.739-2.739,52.518,3.1A9.609,9.609,0,1,0,163.2,10.125c-.261-.015-.524-.018-.785-.011Zm4.389,13.962a5.933,5.933,0,0,1-4.459,1.621L109.02,22.556a1.824,1.824,0,0,0-1.388.527L104.32,26.4a5.477,5.477,0,0,1-3.842,1.594H87.141a14.736,14.736,0,0,0-.255-3.623h9.348V20.744H85.683c-.145-.3-.263-.609-.429-.906a10.812,10.812,0,0,1-1.087-2.717H96.234V13.5H83.861a10.965,10.965,0,0,1,.929-3.623h15.688a5.473,5.473,0,0,1,3.842,1.59l3.313,3.313a1.768,1.768,0,0,0,1.333.531l53.563-1.576a5.986,5.986,0,0,1,4.284,10.341Z" transform="translate(1463.37 1453.09)"/>
  </g>
</svg>
